<?xml version="1.0" encoding="iso-8859-1"?>
<!-- Uploaded to: SVG Repo, www.svgrepo.com, Generator: SVG Repo Mixer Tools -->
<svg height="800px" width="800px" version="1.1" id="Layer_1" xmlns="http://www.w3.org/2000/svg" xmlns:xlink="http://www.w3.org/1999/xlink" 
	 viewBox="0 0 512 512" xml:space="preserve">
<path style="fill:#F2BA86;" d="M456.346,233.737H356.173c-9.217,0-16.695-7.473-16.695-16.695V83.477
	C339.477,37.446,376.923,0,422.955,0c45.88,0,83.477,37.034,83.477,83.477V183.65C506.432,211.269,483.966,233.737,456.346,233.737z
	"/>
<path style="fill:#FFEACC;" d="M5.568,83.477v411.822c0,6.419,3.674,12.267,9.467,15.049c5.772,2.788,12.652,2,17.663-2.011
	l31.304-25.049l31.304,25.049c6.108,4.881,14.761,4.881,20.869,0l31.304-25.049l31.304,25.049c6.108,4.881,14.761,4.881,20.869,0
	l31.304-25.049l31.304,25.049c6.108,4.881,14.761,4.881,20.869,0l31.304-25.049l31.304,25.049c5.03,4.017,11.901,4.783,17.663,2.011
	c5.793-2.783,9.467-8.63,9.467-15.049V50.086C372.868,22.468,395.336,0,422.955,0H89.045C43.014,0,5.568,37.446,5.568,83.477z"/>
<path style="fill:#FFD9B3;" d="M194.783,511.022c1.723-0.609,3.375-1.491,4.87-2.685l31.304-25.049l31.304,25.049
	c6.108,4.881,14.761,4.881,20.869,0l31.304-25.049l31.304,25.049c5.03,4.017,11.901,4.783,17.663,2.011
	c5.793-2.783,9.467-8.63,9.467-15.049V50.086C372.868,22.468,395.336,0,422.955,0H194.783L194.783,511.022L194.783,511.022z"/>
<g>
	<path style="fill:#F37B2A;" d="M194.783,283.823c-4.457,0-8.652-1.74-11.804-4.896c-3.152-3.152-4.892-7.343-4.892-11.799
		s1.74-8.647,4.892-11.804c6.304-6.304,17.304-6.31,23.609,0.006c3.152,3.152,4.892,7.343,4.892,11.799
		c0,9.223,7.478,16.695,16.695,16.695c9.217,0,16.695-7.473,16.695-16.695c0-13.385-5.218-25.961-14.674-35.412
		c-5.357-5.36-11.778-9.18-18.717-11.637v-14.169c0-9.223-7.478-16.695-16.695-16.695c-9.217,0-16.695,7.473-16.695,16.695v14.167
		c-6.939,2.458-13.36,6.275-18.717,11.632c-9.456,9.456-14.674,22.032-14.674,35.418s5.218,25.961,14.674,35.412
		c9.456,9.462,22.032,14.674,35.412,14.674c4.457,0,8.652,1.74,11.804,4.896c3.152,3.152,4.892,7.343,4.892,11.799
		s-1.74,8.647-4.892,11.804c-6.304,6.304-17.304,6.31-23.609-0.006c-3.152-3.152-4.892-7.343-4.892-11.799
		c0-9.223-7.478-16.695-16.695-16.695s-16.695,7.473-16.695,16.695c0,13.385,5.218,25.961,14.674,35.412
		c5.357,5.36,11.778,9.18,18.717,11.637v14.169c0,9.223,7.478,16.695,16.695,16.695c9.217,0,16.695-7.473,16.695-16.695v-14.167
		c6.939-2.458,13.36-6.275,18.717-11.632c9.456-9.456,14.674-22.032,14.674-35.418s-5.218-25.961-14.674-35.412
		C220.74,289.035,208.164,283.823,194.783,283.823z"/>
	<path style="fill:#F37B2A;" d="M289.391,100.173H89.045c-9.217,0-16.695-7.473-16.695-16.695s7.478-16.695,16.695-16.695h200.346
		c9.217,0,16.695,7.473,16.695,16.695S298.609,100.173,289.391,100.173z"/>
</g>
<path style="fill:#E56722;" d="M289.391,66.782h-94.608v33.391h94.608c9.217,0,16.695-7.473,16.695-16.695
	S298.609,66.782,289.391,66.782z"/>
<path style="fill:#F37B2A;" d="M289.391,166.955H89.045c-9.217,0-16.695-7.473-16.695-16.695c0-9.223,7.478-16.695,16.695-16.695
	h200.346c9.217,0,16.695,7.473,16.695,16.695C306.086,159.482,298.609,166.955,289.391,166.955z"/>
<g>
	<path style="fill:#E56722;" d="M289.391,133.564h-94.608v33.391h94.608c9.217,0,16.695-7.473,16.695-16.695
		C306.086,141.037,298.609,133.564,289.391,133.564z"/>
	<path style="fill:#E56722;" d="M206.588,255.328c3.152,3.152,4.892,7.343,4.892,11.799c0,9.223,7.478,16.695,16.695,16.695
		c9.217,0,16.695-7.473,16.695-16.695c0-13.385-5.218-25.961-14.674-35.412c-5.357-5.36-11.778-9.18-18.717-11.637v-14.168
		c0-9.223-7.478-16.695-16.695-16.695v61.378C199.11,250.593,203.436,252.172,206.588,255.328z"/>
	<path style="fill:#E56722;" d="M211.479,395.126v-14.167c6.939-2.458,13.36-6.275,18.717-11.632
		c9.456-9.456,14.674-22.032,14.674-35.418s-5.218-25.961-14.674-35.412c-9.455-9.462-22.031-14.674-35.412-14.674v33.391
		c4.457,0,8.652,1.74,11.804,4.896c3.152,3.152,4.892,7.343,4.892,11.799s-1.74,8.647-4.892,11.804
		c-3.152,3.152-7.478,4.729-11.804,4.729v61.379C204.001,411.822,211.479,404.349,211.479,395.126z"/>
</g>
</svg>